# xmcd CD database file
#
# Track frame offsets:
#	150
#	21768
#	43918
#
# Disc length: 868 seconds
#
# Revision: 1
# Processed by: cddbd v1.5.1PL0 Copyright (c) Steve Scherf et al.
# Submitted via: CDex 1.51
#
DISCID=1f036203
DTITLE=NIRGILIS - ソプラノ
DYEAR=2002
DGENRE=Pop
TTITLE0=ソプラノ
TTITLE1=righthand
TTITLE2=アカリ
EXTD=YEAR: 2002
EXTT0=
EXTT1=
EXTT2=
PLAYORDER=
